<?xml version="1.0" encoding="windows-1252" standalone="no"?>
<svg xmlns="http://www.w3.org/2000/svg" xmlns:xlink="http://www.w3.org/1999/xlink" contentStyleType="text/css" height="629px" preserveAspectRatio="none" style="width:529px;height:629px;background:#FFFFFF;" version="1.1" viewBox="0 0 529 629" width="529px" zoomAndPan="magnify"><script xmlns=""/><div xmlns="" id="__jumpCutterBridgeElement"/><defs/><g><!--cluster docker--><g id="cluster_docker"><polygon fill="none" points="16,139,26,129,512,129,512,602,502,612,16,612,16,139" style="stroke:#181818;stroke-width:1.0;"/><line style="stroke:#181818;stroke-width:1.0;" x1="502" x2="512" y1="139" y2="129"/><line style="stroke:#181818;stroke-width:1.0;" x1="16" x2="502" y1="139" y2="139"/><line style="stroke:#181818;stroke-width:1.0;" x1="502" x2="502" y1="139" y2="612"/><text fill="#000000" font-family="sans-serif" font-size="14" font-weight="bold" lengthAdjust="spacing" textLength="133" x="193.5" y="154.9951">Docker-compose</text></g><!--cluster influxdb_node--><g id="cluster_influxdb_node"><polygon fill="none" points="125,497,135,487,269,487,269,578,259,588,125,588,125,497" style="stroke:#181818;stroke-width:1.0;"/><line style="stroke:#181818;stroke-width:1.0;" x1="259" x2="269" y1="497" y2="487"/><line style="stroke:#181818;stroke-width:1.0;" x1="125" x2="259" y1="497" y2="497"/><line style="stroke:#181818;stroke-width:1.0;" x1="259" x2="259" y1="497" y2="588"/><text fill="#000000" font-family="sans-serif" font-size="14" font-weight="bold" lengthAdjust="spacing" textLength="68" x="159" y="512.9951">InfluxDB</text></g><!--cluster grafana_node--><g id="cluster_grafana_node"><polygon fill="none" points="125,342,135,332,267,332,267,414,257,424,125,424,125,342" style="stroke:#181818;stroke-width:1.0;"/><line style="stroke:#181818;stroke-width:1.0;" x1="257" x2="267" y1="342" y2="332"/><line style="stroke:#181818;stroke-width:1.0;" x1="125" x2="257" y1="342" y2="342"/><line style="stroke:#181818;stroke-width:1.0;" x1="257" x2="257" y1="342" y2="424"/><text fill="#000000" font-family="sans-serif" font-size="14" font-weight="bold" lengthAdjust="spacing" textLength="66" x="159" y="357.9951">Grafana</text></g><!--cluster nginx_node--><g id="cluster_nginx_node"><polygon fill="none" points="134,187,144,177,260,177,260,259,250,269,134,269,134,187" style="stroke:#181818;stroke-width:1.0;"/><line style="stroke:#181818;stroke-width:1.0;" x1="250" x2="260" y1="187" y2="177"/><line style="stroke:#181818;stroke-width:1.0;" x1="134" x2="250" y1="187" y2="187"/><line style="stroke:#181818;stroke-width:1.0;" x1="250" x2="250" y1="187" y2="269"/><text fill="#000000" font-family="sans-serif" font-size="14" font-weight="bold" lengthAdjust="spacing" textLength="50" x="168" y="202.9951">NGINX</text></g><!--cluster debian_node--><g id="cluster_debian_node"><polygon fill="none" points="291,342,301,332,488,332,488,414,478,424,291,424,291,342" style="stroke:#181818;stroke-width:1.0;"/><line style="stroke:#181818;stroke-width:1.0;" x1="478" x2="488" y1="342" y2="332"/><line style="stroke:#181818;stroke-width:1.0;" x1="291" x2="478" y1="342" y2="342"/><line style="stroke:#181818;stroke-width:1.0;" x1="478" x2="478" y1="342" y2="424"/><text fill="#000000" font-family="sans-serif" font-size="14" font-weight="bold" lengthAdjust="spacing" textLength="120" x="325.5" y="357.9951">Debian-testing</text></g><!--entity pc--><g id="elem_pc"><polygon fill="#F1F1F1" points="155.5,16,165.5,6,238.5,6,238.5,42.2969,228.5,52.2969,155.5,52.2969,155.5,16" style="stroke:#181818;stroke-width:0.5;"/><line style="stroke:#181818;stroke-width:0.5;" x1="228.5" x2="238.5" y1="16" y2="6"/><line style="stroke:#181818;stroke-width:0.5;" x1="155.5" x2="228.5" y1="16" y2="16"/><line style="stroke:#181818;stroke-width:0.5;" x1="228.5" x2="228.5" y1="16" y2="52.2969"/><text fill="#000000" font-family="sans-serif" font-size="14" lengthAdjust="spacing" textLength="43" x="170.5" y="38.9951">Client</text></g><!--entity influxdb--><g id="elem_influxdb"><path d="M158,537 C158,527 197,527 197,527 C197,527 236,527 236,537 L236,562.2969 C236,572.2969 197,572.2969 197,572.2969 C197,572.2969 158,572.2969 158,562.2969 L158,537 " fill="#F1F1F1" style="stroke:#181818;stroke-width:0.5;"/><path d="M158,537 C158,547 197,547 197,547 C197,547 236,547 236,537 " fill="none" style="stroke:#181818;stroke-width:0.5;"/><text fill="#000000" font-family="sans-serif" font-size="14" lengthAdjust="spacing" textLength="58" x="168" y="563.9951">influxdb</text></g><!--entity grafana--><g id="elem_grafana"><rect fill="#F1F1F1" height="36.2969" rx="2.5" ry="2.5" style="stroke:#181818;stroke-width:0.5;" width="74" x="160" y="372"/><text fill="#000000" font-family="sans-serif" font-size="14" lengthAdjust="spacing" textLength="54" x="170" y="394.9951">grafana</text></g><!--entity nginx--><g id="elem_nginx"><rect fill="#F1F1F1" height="36.2969" rx="2.5" ry="2.5" style="stroke:#181818;stroke-width:0.5;" width="59" x="167.5" y="217"/><text fill="#000000" font-family="sans-serif" font-size="14" lengthAdjust="spacing" textLength="39" x="177.5" y="239.9951">nginx</text></g><!--entity telegraf--><g id="elem_telegraf"><rect fill="#F1F1F1" height="36.2969" rx="2.5" ry="2.5" style="stroke:#181818;stroke-width:0.5;" width="78" x="394" y="372"/><text fill="#000000" font-family="sans-serif" font-size="14" lengthAdjust="spacing" textLength="58" x="404" y="394.9951">telegraf</text></g><!--entity sshd--><g id="elem_sshd"><rect fill="#F1F1F1" height="36.2969" rx="2.5" ry="2.5" style="stroke:#181818;stroke-width:0.5;" width="52" x="307" y="372"/><text fill="#000000" font-family="sans-serif" font-size="14" lengthAdjust="spacing" textLength="32" x="317" y="394.9951">sshd</text></g><!--link telegraf to influxdb--><g id="link_telegraf_influxdb"><path d="M410.327,408.057 C400.222,415.54 388.114,424.344 377,432 C327.185,466.314 268.085,504.007 231.559,526.962 " fill="none" id="telegraf-influxdb" style="stroke:#181818;stroke-width:1.0;"/><text fill="#000000" font-family="sans-serif" font-size="13" lengthAdjust="spacing" textLength="18" x="370" y="460.0669">sql</text><path d="M309.0763,485.8256 A10,10 0 0 0 301.3811 473.9604" fill="none" style="stroke:#181818;stroke-width:1.5;"/><ellipse cx="299.2961" cy="483.7406" fill="#FFFFFF" rx="6" ry="6" style="stroke:#181818;stroke-width:1.5;"/></g><!--link grafana to influxdb--><g id="link_grafana_influxdb"><path d="M197,408.155 C197,437.016 197,495.224 197,526.852 " fill="none" id="grafana-influxdb" style="stroke:#181818;stroke-width:1.0;"/><text fill="#000000" font-family="sans-serif" font-size="13" lengthAdjust="spacing" textLength="18" x="205" y="460.0669">sql</text><path d="M204.0711,459.3948 A10,10 0 0 0 189.9289 459.3948" fill="none" style="stroke:#181818;stroke-width:1.5;"/><ellipse cx="197" cy="466.4659" fill="#FFFFFF" rx="6" ry="6" style="stroke:#181818;stroke-width:1.5;"/></g><!--link nginx to influxdb--><g id="link_nginx_influxdb"><path d="M168.112,253.181 C145.391,268.528 115.408,293.303 102,324 C82.7869,367.987 85.9001,386.781 102,432 C115.656,470.354 147.946,505.225 171.088,526.616 " fill="none" id="nginx-influxdb" style="stroke:#181818;stroke-width:1.0;"/><text fill="#000000" font-family="sans-serif" font-size="13" lengthAdjust="spacing" textLength="26" x="110" y="394.5669">http</text><path d="M106.2897,422.9668 A10,10 0 0 0 92.9668 427.7103" fill="none" style="stroke:#181818;stroke-width:1.5;"/><ellipse cx="102" cy="432" fill="#FFFFFF" rx="6" ry="6" style="stroke:#181818;stroke-width:1.5;"/></g><!--link nginx to grafana--><g id="link_nginx_grafana"><path d="M197,253.254 C197,282.638 197,342.073 197,371.575 " fill="none" id="nginx-grafana" style="stroke:#181818;stroke-width:1.0;"/><text fill="#000000" font-family="sans-serif" font-size="13" lengthAdjust="spacing" textLength="26" x="205" y="305.0669">http</text><path d="M204.0711,305.2992 A10,10 0 0 0 189.9289 305.2992" fill="none" style="stroke:#181818;stroke-width:1.5;"/><ellipse cx="197" cy="312.3703" fill="#FFFFFF" rx="6" ry="6" style="stroke:#181818;stroke-width:1.5;"/></g><!--link nginx to sshd--><g id="link_nginx_sshd"><path d="M215.509,253.247 C225.141,262.442 236.967,274.082 247,285 C274.11,314.499 303.374,350.992 319.819,371.974 " fill="none" id="nginx-sshd" style="stroke:#181818;stroke-width:1.0;"/><text fill="#000000" font-family="sans-serif" font-size="13" lengthAdjust="spacing" textLength="22" x="281" y="305.0669">ssh</text><path d="M288.3527,321.7255 A10,10 0 0 0 277.4535 330.737" fill="none" style="stroke:#181818;stroke-width:1.5;"/><ellipse cx="287.4089" cy="331.6809" fill="#FFFFFF" rx="6" ry="6" style="stroke:#181818;stroke-width:1.5;"/></g><!--link pc to nginx--><g id="link_pc_nginx"><path d="M173.527,52.206 C166.121,60.73 158.867,71.058 155,82 C138.032,130.013 167.892,188.497 185.491,216.89 " fill="none" id="pc-nginx" style="stroke:#181818;stroke-width:1.0;"/><text fill="#000000" font-family="sans-serif" font-size="13" lengthAdjust="spacing" textLength="22" x="163" y="102.0669">ssh</text><path d="M161.9262,147.9459 A10,10 0 0 0 148.4263 152.1592" fill="none" style="stroke:#181818;stroke-width:1.5;"/><ellipse cx="157.2829" cy="156.8025" fill="#FFFFFF" rx="6" ry="6" style="stroke:#181818;stroke-width:1.5;"/></g><!--link pc to nginx--><g id="link_pc_nginx"><path d="M197,52.22 C197,93.217 197,179.928 197,216.812 " fill="none" id="pc-nginx-1" style="stroke:#181818;stroke-width:1.0;"/><text fill="#000000" font-family="sans-serif" font-size="13" lengthAdjust="spacing" textLength="33" x="205" y="102.0669">https</text><path d="M204.0711,128.9873 A10,10 0 0 0 189.9289 128.9873" fill="none" style="stroke:#181818;stroke-width:1.5;"/><ellipse cx="197" cy="136.0584" fill="#FFFFFF" rx="6" ry="6" style="stroke:#181818;stroke-width:1.5;"/></g><!--SRC=[TPAn3e8m48RtFaNJoON4sL5920kpcpbeXKOyaAk9YV7TfGUr4R53G- - - -_f3m4uRsLSIIAf3QmqwzHHoNE8b1FgcxggB6HX8-J6fkclVaGcWtvYqU6xl3rsU-EG7Sgwa-ndrIuE34YZIt1al-sZg0Sw042tPL50oMg0UamPoDdo7mThY8pgAB2-EQYbWQ7LScz82nlcKpuapv2pMFo9dMkFJBCf4ZLxgUGkyJ3RRvFCfv4ugkhMAaVdb_X1JKX__5sYSwzKI2Bf_VH-LxTJCzl6luCu4XTPgnnj9YTSR]--></g></svg>